<svg width="249" height="64" xmlns="http://www.w3.org/2000/svg"><g fill="#F6F6F6" fill-rule="evenodd"><path d="M51.663 49.387c1.13-2.342 1.707-4.798 1.707-7.297a19 19 0 00-1.197-6.654 18.99 18.99 0 00-3.298-5.624 14.528 14.528 0 00-.608-.686c.013.31.022.623.022.94 0 13.192-10.69 23.884-23.886 23.884C11.215 53.95.5 42.154.5 28.964c0 17.765 14.4 32.172 32.166 32.172 1.355 0 2.706-.131 4.03-.367 3.778-.776 7.41-2.609 10.359-5.282 1.972-1.789 3.525-3.842 4.608-6.1"/><path d="M21.645 50.939l7.756-7.251-7.756-7.13c-7.073-1.267-12.44-7.448-12.44-14.884 0-8.351 7.927-15.158 16.281-15.158-12.36 0-22.38 10.016-22.38 22.374 0 11.05 8.007 20.227 18.539 22.049m43.191-19.222c0-15.883-11.512-29.079-26.653-31.695L27.034 10.445l11.15 10.251c10.17 1.816 17.889 10.707 17.889 21.394 0 12.005-11.401 21.797-23.407 21.797 17.77 0 32.17-14.403 32.17-32.17M213.5 32.908c0 3.301-.684 5.7-2.046 7.205-1.26 1.554-3.11 2.332-5.543 2.332-1.842 0-3.3-.484-4.367-1.46-.536-.485-.917-1.03-1.13-1.635-.217-.607-.324-1.396-.324-2.366 0-1.99.677-3.423 2.036-4.297 1.605-1.02 4.031-1.527 7.282-1.527h4.092v1.748zm-54.036 6.32c-1.393 1.852-3.282 2.773-5.675 2.773-2.536 0-4.503-.933-5.9-2.81-1.388-1.872-2.086-4.712-2.086-8.509 0-3.793.708-6.714 2.119-8.767 1.42-2.042 3.353-3.062 5.795-3.062 2.443 0 4.354 1.057 5.747 3.176 1.396 2.115 2.089 5.05 2.089 8.8 0 3.75-.693 6.552-2.09 8.4zm-26.265-3.084c-.632 2.508-1.587 4.215-2.854 5.104-1.274.896-3.004 1.34-5.205 1.34-3.029 0-5.322-.885-6.886-2.651-1.561-1.77-2.35-4.087-2.35-6.945h21.772a23.51 23.51 0 00.433 3.152h-4.91zm-14.765-15.239c1.3-1.564 3.118-2.346 5.461-2.346 2.638 0 4.613.83 5.94 2.49a9.319 9.319 0 011.575 2.82c.363 1.054.548 2.358.548 3.919h-16.055c.397-3.026 1.242-5.322 2.531-6.883zm129.823 13.729a7.398 7.398 0 00-1.795-2.847c-1.462-1.608-3.977-3.022-7.544-4.241l-2.788-1.022c-2.1-.73-3.639-1.45-4.616-2.152-.977-.704-1.466-1.505-1.466-2.38 0-1.219.499-2.178 1.503-2.886.999-.709 2.5-1.062 4.505-1.062 2.638 0 4.485.474 5.535 1.43 1.051.95 1.573 2.453 1.573 4.505v1.323h4.473l.069-10.483-3.217-.73-3.235-.44c-1.414-.195-3.17-.29-5.27-.29-4.353 0-7.644.83-9.891 2.496-2.494 1.57-3.735 3.949-3.735 7.133 0 2.45.73 4.458 2.197 6.026.686.643 1.832 1.377 3.444 2.208 1.274.69 3.346 1.546 6.229 2.578h.363c4.203 1.561 6.299 3.246 6.299 5.05 0 1.274-.506 2.325-1.534 3.15-1.224.784-2.906 1.173-5.055 1.173-2.545 0-4.421-.482-5.641-1.462-.54-.492-.925-1.172-1.179-2.05-.235-.88-.364-1.905-.364-3.08v-1.54h-4.319v7.577c-.426-.084-.715-.217-.869-.393-.254-.202-.426-.54-.53-1.028V27.498c0-5.226-1.12-8.891-3.356-10.992-2.26-2.101-5.99-3.148-11.217-3.148h-2.416l-2.203.217-3.144.521-3.151.658s-3.153-1.47-5.131-1.47c-1.98 0-4.225.51-6.23 1.535-.627.398-1.093.688-1.391.882-.284.198-.706.54-1.242 1.025V13.87l-3.004.294-1.91.073-3.29.074h-1.535l-2.203-.074v4.197l2.856.144c.584.052.989.176 1.212.375.22.194.327.756.327 1.692v18.04c0 1.818-.209 2.91-.62 3.281a2.963 2.963 0 01-1.503.697h-1.537c-.585-.048-1.005-.172-1.247-.37-.29-.39-.437-1.264-.437-2.63V.022l-2.79.437H156.13v4.322c2.588 0 4.068.136 4.433.408.37.268.546 1.209.546 2.817v8.355c-.679-.686-1.535-1.267-2.56-1.758-1.905-.83-4.005-1.246-6.297-1.246-4.646 0-8.246 1.569-10.809 4.715-1.241 1.525-2.185 3.306-2.82 5.352-.033-.122-.07-.242-.106-.363-.661-2.124-1.653-3.92-2.968-5.381-2.788-2.883-6.718-4.323-11.796-4.323-5.01 0-8.943 1.554-11.798 4.675v-3.87l-5.571.22h-5.64l-5.348-.22v4.396l3.302.146 1.825.437c.345.199.51.544.51 1.03l-.213.513-.213 1.102-7.032 17.596-7.254-17.897-.375-1.025v-.44c0-.339.195-.625.576-.838.387-.225.944-.378 1.664-.478h3.4v-4.322H79.645l-5.42-.22v4.396l1.758.146.808.522c.58.749 1.198 1.895 1.832 3.434l10.553 24.691h7.617l10.48-24.764.805-1.683c.438-.782.757-1.249.948-1.395l1.102-.58 1.333-.323c-2.553 3.073-3.827 7.076-3.827 12.001 0 5.41 1.44 9.641 4.322 12.69 2.876 3.04 6.861 4.564 11.94 4.564 4.3 0 7.67-.873 10.11-2.622 1.422-.97 2.517-2.108 3.3-3.419.543-.907.999-2.094 1.373-3.558.636 1.923 1.56 3.602 2.765 5.034 2.563 3.042 6.093 4.565 10.581 4.565 2.542 0 4.819-.525 6.819-1.579.973-.48 1.954-1.197 2.93-2.155v3.297l2.56-.366 1.69-.074 3.882-.07h17.798v-4.253h-1.54c-1.748 0-2.826-.217-3.22-.661-.438-.389-.661-1.443-.661-3.162v-9.993c0-3.673.488-6.295 1.47-7.864 1.028-1.42 2.46-2.13 4.322-2.13.929 0 1.727.272 2.416.816.488.643.731 1.807.731 3.485v1.673l4.69-.039h4.179c0-2.67.478-4.432 1.454-5.3.981-.862 2.447-1.296 4.405-1.296 2.442 0 4.37.493 5.784 1.48 1.18.988 1.767 2.417 1.767 4.287v2.368h-4.315c-5.598 0-9.833.9-12.704 2.7-2.876 1.799-4.305 4.55-4.305 8.252 0 3.405 1.131 6.023 3.393 7.848 2.263 1.826 5.168 2.736 8.724 2.736 2.87 0 5.276-.525 7.227-1.575.83-.426 1.605-1.003 2.34-1.722v2.86l2.567-.51h9.375l4.613.584c1.706.242 3.402.363 5.057.363 4.246 0 7.537-.862 9.847-2.592 2.326-1.727 3.483-4.18 3.483-7.345 0-1.124-.177-2.219-.545-3.291zM74.224 63.771v-.583h.404c.173 0 .29-.031.35-.094.059-.063.09-.205.09-.425v-3.47c0-.215-.03-.354-.086-.416-.057-.064-.175-.095-.354-.095h-.323v-.555h4.473v1.613h-.654v-.609a.307.307 0 00-.081-.207c-.066-.065-.271-.098-.615-.098h-1.33v1.703h.808c.13 0 .219-.03.263-.09.045-.06.068-.212.068-.457V59.8h.592v2.143h-.592c0-.38-.037-.603-.108-.67-.024-.037-.09-.065-.197-.083h-.834v1.883h1.345c.323 0 .526-.042.61-.126a.883.883 0 00.08-.296c.018-.13.027-.32.027-.564v-.108h.645v1.793h-4.58zm14.532-4.984c-.077.06-.147.176-.206.35l-1.658 4.679h-1.04L84.04 59.19l-.118-.269-.106-.143a.219.219 0 00-.09-.063l-.296-.045v-.564l.672.027H85.7v.546c-.39 0-.605.014-.65.042a.134.134 0 00-.067.123l.019.092.028.1 1.37 3.698 1.267-3.654.028-.133.013-.074a.151.151 0 00-.099-.152c-.065-.028-.197-.042-.393-.042h-.251v-.546h1.541l.672-.027v.573c-.215 0-.355.036-.421.108m4.903 4.984v-.583h.403c.173 0 .29-.031.35-.094s.089-.205.089-.425v-3.47c0-.215-.028-.354-.085-.416-.057-.064-.174-.095-.354-.095h-.323v-.555h4.474v1.613h-.655v-.609a.303.303 0 00-.08-.207c-.067-.065-.272-.098-.616-.098h-1.33v1.703h.807c.131 0 .22-.03.265-.09.044-.06.067-.212.067-.457V59.8h.592v2.143h-.592c0-.38-.036-.603-.108-.67-.024-.037-.09-.065-.197-.083h-.834v1.883h1.345c.323 0 .526-.042.61-.126a.883.883 0 00.08-.296c.018-.13.027-.32.027-.564v-.108h.645v1.793h-4.58zm14.792-5.056h-.207a.208.208 0 00-.116.062c-.054.066-.08.174-.08.324v4.67H106.9l-2.26-4.383V62.9c0 .084.028.153.083.206.041.06.16.09.353.09h.317v.574h-2.357v-.574h.308c.188 0 .308-.026.36-.08a.301.301 0 00.085-.19v-3.771c0-.1-.006-.18-.018-.233a.296.296 0 00-.054-.125c-.047-.055-.165-.081-.35-.081h-.286v-.583h1.676l.197-.035 2.251 4.367v-3.266c0-.209-.034-.356-.1-.44-.049-.046-.163-.07-.345-.07h-.318v-.556h1.579l.735-.018v.6h-.305zm9.269 1.085v-.317c0-.295-.031-.481-.094-.556-.063-.076-.22-.114-.47-.114h-.718v4.088c0 .084.027.152.081.206.043.06.16.09.354.09h.345v.574h-2.599v-.574h.332c.19 0 .308-.03.35-.09a.338.338 0 00.07-.162l.028-.26v-3.872h-.798c-.209 0-.356.037-.44.109-.07.085-.107.257-.107.516v.361h-.654v-1.667h4.554l.439-.026v1.693h-.672zm15.499-.78c-.202-.167-.504-.252-.905-.252h-.475v1.946h.439c.407 0 .717-.08.933-.242.19-.173.287-.418.287-.735 0-.328-.093-.568-.279-.718m1.152 1.43a1.2 1.2 0 01-.376.494c-.17.135-.388.234-.654.3a3.85 3.85 0 01-.919.099h-.583v1.611a.394.394 0 00.064.145c.068.066.193.1.377.1h.312v.573h-2.545v-.574h.322c.173 0 .284-.026.331-.08.073-.084.108-.231.108-.44V59.2c0-.216-.031-.355-.094-.417-.063-.064-.178-.095-.345-.095h-.322v-.574h2.384c.335 0 .621.031.86.094s.46.166.664.31c.36.28.538.687.538 1.219 0 .28-.04.518-.122.712m8.118-1.438c-.185-.156-.486-.234-.906-.234h-.518v1.866h.34c.483 0 .83-.074 1.04-.22.209-.147.313-.379.313-.695 0-.34-.09-.58-.269-.717zm.566 4.76l-.162-.556-.162-.61c-.017-.083-.046-.21-.085-.38a3.577 3.577 0 00-.068-.274c-.106-.287-.232-.472-.375-.556-.144-.083-.384-.125-.718-.125h-.42v1.683c.006.061.03.117.077.168.047.05.164.077.353.077h.322v.573h-2.555v-.573h.314c.19 0 .307-.031.35-.09a.341.341 0 00.071-.163l.027-.26V58.93a.218.218 0 00-.073-.153c-.055-.059-.178-.09-.368-.09h-.32v-.573h2.393c.704 0 1.232.124 1.582.372.35.248.524.635.524 1.162 0 .358-.092.657-.278.896a1.668 1.668 0 01-.475.376c.066.037.117.068.153.095a.44.44 0 01.098.103c.12.157.248.483.387.981l.035.153c.077.318.167.555.268.71.102.157.23.236.386.236h.206v.573h-1.487zm10.12-4.528c-.274-.382-.672-.573-1.192-.573-.514 0-.909.19-1.182.573-.275.382-.414.942-.414 1.682 0 .733.14 1.293.418 1.678.277.384.67.577 1.178.577.52 0 .918-.187 1.192-.56.276-.373.413-.938.413-1.695 0-.74-.137-1.3-.413-1.682m.812 3.87c-.481.517-1.146.774-1.995.774-.855 0-1.52-.262-1.995-.787-.474-.525-.712-1.247-.712-2.166 0-.932.238-1.653.718-2.166.477-.514 1.14-.77 1.99-.77.853 0 1.52.256 1.999.77.477.513.716 1.234.716 2.166 0 .936-.24 1.663-.721 2.179m9.489-3.367v-.215c0-.323-.03-.523-.09-.6-.06-.078-.265-.118-.618-.118h-1.282v1.73h.43c.34 0 .54-.029.6-.089.06-.06.09-.215.09-.466V59.8h.592v2.143h-.591c0-.358-.036-.58-.107-.663-.03-.042-.094-.066-.189-.072l-.386-.018h-.44v1.765a.251.251 0 00.07.144c.033.03.09.054.17.073l.265.026h.321v.574h-2.681v-.574h.386c.173 0 .29-.031.35-.095.06-.062.089-.204.089-.426V59.2c0-.216-.029-.355-.085-.417-.057-.064-.175-.095-.354-.095h-.324v-.574h4.439v1.632h-.655zm5.173 4.025v-.583h.403c.173 0 .29-.031.35-.094s.09-.205.09-.425v-3.47c0-.215-.03-.354-.087-.416-.056-.064-.174-.095-.353-.095h-.323v-.555h4.474v1.613h-.655v-.609a.31.31 0 00-.08-.207c-.067-.065-.272-.098-.616-.098h-1.33v1.703h.808c.13 0 .219-.03.263-.09.046-.06.068-.212.068-.457V59.8h.592v2.143h-.592c0-.38-.036-.603-.108-.67-.024-.037-.09-.065-.197-.083h-.834v1.883h1.345c.323 0 .526-.042.61-.126a.884.884 0 00.08-.296 4.39 4.39 0 00.027-.564v-.108h.645v1.793h-4.58zm13.204-.331c-.388.299-.929.447-1.622.447-.233 0-.493-.014-.781-.044l-.582-.08-.574-.108v-1.721l.735.008v.33c0 .338.083.582.251.73.19.154.502.231.933.231.388 0 .68-.084.874-.253a.827.827 0 00.29-.653.718.718 0 00-.144-.435c-.095-.13-.266-.246-.511-.347l-.994-.425c-.502-.21-.857-.432-1.066-.668a1.26 1.26 0 01-.315-.866c0-.508.187-.9.557-1.175.371-.276.893-.414 1.568-.414.191 0 .431.016.718.046l.538.08.529.117v1.613l-.708-.009v-.375c0-.294-.078-.504-.23-.633-.152-.129-.413-.193-.784-.193-.365 0-.647.072-.847.215-.2.144-.3.335-.3.574 0 .167.048.308.143.421.047.054.12.112.215.176.096.062.218.12.368.174l1.102.44c.412.167.719.377.92.63.2.253.3.55.3.89 0 .553-.195.98-.583 1.278m9.279-.001c-.389.299-.93.447-1.624.447-.232 0-.492-.014-.78-.044l-.581-.08-.575-.108v-1.721l.736.008v.33c0 .338.082.582.251.73.19.154.502.231.932.231.388 0 .68-.084.874-.253a.828.828 0 00.291-.653.718.718 0 00-.144-.435c-.095-.13-.267-.246-.512-.347l-.993-.425c-.503-.21-.858-.432-1.066-.668a1.257 1.257 0 01-.315-.866c0-.508.185-.9.557-1.175.37-.276.892-.414 1.568-.414.19 0 .43.016.717.046l.538.08.53.117v1.613l-.71-.009v-.375c0-.294-.076-.504-.228-.633-.152-.129-.414-.193-.785-.193-.364 0-.647.072-.847.215-.2.144-.3.335-.3.574 0 .167.048.308.144.421.047.054.12.112.215.176.095.062.218.12.368.174l1.102.44c.412.167.719.377.92.63.2.253.3.55.3.89 0 .553-.195.98-.583 1.278m7.547.33h-1.98v-.574h.304c.191 0 .308-.03.35-.09a.349.349 0 00.073-.161l.026-.26V58.93a.221.221 0 00-.073-.153c-.056-.06-.179-.09-.368-.09h-.312v-.554h1.712l.833-.019v.574h-.555a.221.221 0 00-.117.072c-.054.067-.08.21-.08.432v3.709a.28.28 0 00.08.206c.044.06.162.09.355.09h.317v.574h-.565zm9.459-4.528c-.276-.382-.673-.573-1.193-.573-.513 0-.908.19-1.183.573-.275.382-.412.942-.412 1.682 0 .733.138 1.293.417 1.678.278.384.67.577 1.178.577.52 0 .917-.187 1.193-.56.275-.373.412-.938.412-1.695 0-.74-.137-1.3-.412-1.682m.811 3.87c-.482.517-1.146.774-1.995.774-.855 0-1.52-.262-1.994-.787-.475-.525-.714-1.247-.714-2.166 0-.932.24-1.653.718-2.166.478-.514 1.142-.77 1.99-.77.854 0 1.522.256 2 .77.477.513.717 1.234.717 2.166 0 .936-.24 1.663-.722 2.179m11.031-4.398h-.207a.207.207 0 00-.116.062c-.054.066-.08.174-.08.324v4.67h-1.148l-2.26-4.383V62.9c0 .084.028.153.083.206.042.06.16.09.354.09h.317v.574h-2.358v-.574h.309c.187 0 .307-.026.359-.08a.308.308 0 00.086-.19v-3.771c0-.1-.007-.18-.018-.233a.312.312 0 00-.055-.125c-.047-.055-.164-.081-.35-.081h-.286v-.583h1.676l.197-.035 2.251 4.367v-3.266c0-.209-.033-.356-.1-.44-.049-.046-.163-.07-.345-.07h-.317v-.556h1.578l.734-.018v.6h-.304zm7.769.448l-.73 1.982 1.47.002-.74-1.984zm2.364 4.608h-1.617v-.583h.137c.263 0 .416-.009.459-.028a.096.096 0 00.063-.094l-.03-.124-.023-.11-.033-.108-.315-.89h-1.997l-.347 1.008-.056.124v.08c0 .04.019.075.058.102.039.027.19.04.452.04h.117v.583h-2.205v-.583c.245 0 .409-.033.493-.098.083-.066.161-.203.233-.413l1.793-4.563h1.022l1.82 4.581c.078.23.158.373.242.428a.35.35 0 00.17.065l.323.018v.565h-.759zm5.287 0v-.583h.313c.192 0 .308-.03.35-.09a.33.33 0 00.071-.161l.027-.26V58.93a.22.22 0 00-.072-.153c-.056-.06-.179-.09-.369-.09h-.32v-.554h1.739l.843-.027.008.582h-.357c-.185 0-.307.03-.368.09a.306.306 0 00-.064.179v4.106h1.165l.404-.027a.351.351 0 00.193-.103c.045-.05.076-.143.094-.278.018-.134.027-.319.027-.55v-.109h.645v1.775h-4.33zm12.82-.331c-.39.299-.93.447-1.624.447-.234 0-.492-.014-.78-.044l-.582-.08-.575-.108v-1.721l.736.008v.33c0 .338.083.582.251.73.191.154.502.231.933.231.387 0 .679-.084.873-.253a.827.827 0 00.291-.653.72.72 0 00-.143-.435c-.097-.13-.268-.246-.514-.347l-.993-.425c-.501-.21-.858-.432-1.065-.668a1.253 1.253 0 01-.314-.866c0-.508.185-.9.556-1.175.37-.276.893-.414 1.569-.414.19 0 .43.016.716.046l.538.08.529.117v1.613l-.708-.009v-.375c0-.294-.077-.504-.228-.633-.152-.129-.414-.193-.784-.193-.367 0-.648.072-.848.215a.673.673 0 00-.301.574.63.63 0 00.145.421c.047.054.118.112.214.176.095.062.219.12.367.174l1.103.44c.412.167.72.377.92.63.2.253.3.55.3.89 0 .553-.195.98-.582 1.278"/></g></svg>